<svg id="Слой_1" data-name="Слой 1" xmlns="http://www.w3.org/2000/svg" viewBox="0 0 12 11"><defs><style>.cls-1{fill:#fed325;}</style></defs><title>bl7_icon3</title><path class="cls-1" d="M137.53,201.69a1.5,1.5,0,0,0-1.13-.5H135l-.32-.9a1.22,1.22,0,0,0-.43-.56,1.07,1.07,0,0,0-.65-.23h-3.2a1.07,1.07,0,0,0-.65.23,1.22,1.22,0,0,0-.43.56l-.32.9h-1.4a1.5,1.5,0,0,0-1.13.5,1.68,1.68,0,0,0-.47,1.2v5.92a1.68,1.68,0,0,0,.47,1.2,1.5,1.5,0,0,0,1.13.5h8.8a1.5,1.5,0,0,0,1.13-.5,1.68,1.68,0,0,0,.47-1.2v-5.92A1.68,1.68,0,0,0,137.53,201.69ZM134,207.94a2.69,2.69,0,0,1-4,0,3.07,3.07,0,0,1,0-4.18,2.69,2.69,0,0,1,4,0,3.07,3.07,0,0,1,0,4.18Zm-2-3.68a1.41,1.41,0,0,0-1.06.47,1.65,1.65,0,0,0,0,2.25,1.44,1.44,0,0,0,2.13,0,1.65,1.65,0,0,0,0-2.25A1.41,1.41,0,0,0,132,204.25Z" transform="translate(-126 -199.5)"/></svg>