<svg id="Слой_1" data-name="Слой 1" xmlns="http://www.w3.org/2000/svg" viewBox="0 0 360 66"><defs><style>.cls-1{fill:#e81f49;}.cls-1,.cls-2{fill-rule:evenodd;}.cls-2{fill:#ff2a56;}</style></defs><title>btn_paket_magiya_normal</title><path class="cls-1" d="M74.95,165s-64.39-.08-59.7,34.76C18.81,226.25,60.62,229,85.74,226c17.92-2.15,77.26-8.74,118.35-5.22,41.7,3.57,113.11,5.32,134.61.58s35.73-10.53,36.3-22.09c-.28-16.28-11.5-34.94-73.44-32.31s-59.44,4.15-135.85,1.43C132.51,167.23,74.95,165,74.95,165Z" transform="translate(-15 -161)"/><path class="cls-2" d="M74.95,161s-64.39-.08-59.7,34.76C18.81,222.23,60.62,225,85.74,222c17.92-2.15,77.26-8.74,118.35-5.22,41.7,3.57,113.11,5.32,134.61.58s35.73-10.53,36.3-22.09c-.28-16.27-11.5-34.94-73.44-32.31s-59.44,4.15-135.85,1.43C132.51,163.21,74.95,161,74.95,161Z" transform="translate(-15 -161)"/></svg>