<svg id="Слой_1" data-name="Слой 1" xmlns="http://www.w3.org/2000/svg" viewBox="0 0 34 24"><title>icon_youtube</title><path d="M339.17,818.56c-1.23-1.46-3.49-2.06-7.82-2.06H315.65c-4.43,0-6.73.64-8,2.19s-1.19,3.76-1.19,6.85v5.9c0,6,1.41,9,9.15,9h15.71c3.75,0,5.83-.53,7.18-1.82s2-3.49,2-7.23v-5.9C340.5,822.28,340.41,820,339.17,818.56Zm-10.85,10.76-7.13,3.74a1.1,1.1,0,0,1-.51.12,1.08,1.08,0,0,1-.57-.16,1.1,1.1,0,0,1-.53-.94v-7.45a1.1,1.1,0,0,1,1.6-1l7.13,3.72a1.1,1.1,0,0,1,0,2Z" transform="translate(-306.5 -816.5)"/></svg>