<svg id="Слой_1" data-name="Слой 1" xmlns="http://www.w3.org/2000/svg" viewBox="0 0 40 24.02"><title>icon_vk</title><path d="M410.29,831.18a2.91,2.91,0,0,0-.14-.27,21.57,21.57,0,0,0-4-4.84l0,0,0,0,0,0h0a24.58,24.58,0,0,1-1.69-1.8,1.76,1.76,0,0,1-.29-1.78,16.69,16.69,0,0,1,1.87-2.87l1.35-1.86q3.6-5,3.12-6.44l-.12-.22a1.21,1.21,0,0,0-.65-.36,3.13,3.13,0,0,0-1.33-.06l-6,0a.75.75,0,0,0-.42,0l-.27.07-.1.05-.08.07a1,1,0,0,0-.23.23,1.54,1.54,0,0,0-.21.38,36.5,36.5,0,0,1-2.23,4.93q-.77,1.36-1.42,2.36a11.23,11.23,0,0,1-1.08,1.47,7.7,7.7,0,0,1-.79.76c-.24.19-.42.27-.54.24l-.35-.09a1.43,1.43,0,0,1-.47-.54,2.48,2.48,0,0,1-.24-.85q-.06-.51-.07-.89c0-.25,0-.6,0-1.05s0-.76,0-.92q0-.83,0-1.81t.05-1.54c0-.38,0-.78,0-1.2a5.32,5.32,0,0,0-.07-1,3.56,3.56,0,0,0-.22-.7,1.16,1.16,0,0,0-.43-.53,2.32,2.32,0,0,0-.7-.3,13.15,13.15,0,0,0-2.81-.29q-3.87,0-5,.53a2.82,2.82,0,0,0-.79.66c-.25.32-.28.5-.1.53a2.52,2.52,0,0,1,1.77.94l.13.26a4.33,4.33,0,0,1,.29,1,10.65,10.65,0,0,1,.19,1.6,17.94,17.94,0,0,1,0,2.74q-.1,1.14-.2,1.77a3.68,3.68,0,0,1-.28,1,4.37,4.37,0,0,1-.25.48.38.38,0,0,1-.1.11,1.52,1.52,0,0,1-.56.11,1.29,1.29,0,0,1-.71-.31,5.15,5.15,0,0,1-.86-.84,11.24,11.24,0,0,1-1-1.5q-.56-1-1.17-2.28l-.33-.63q-.31-.61-.85-1.79t-1-2.27a1.44,1.44,0,0,0-.5-.7l-.1-.07a1.45,1.45,0,0,0-.33-.18,2,2,0,0,0-.48-.14l-5.71,0a1.4,1.4,0,0,0-1.19.42l-.08.13a.74.74,0,0,0-.06.35,1.83,1.83,0,0,0,.13.59q1.25,3.09,2.72,6t2.55,4.62q1.08,1.75,2.21,3.31t1.49,2c.24.29.43.51.57.66l.52.53a12.49,12.49,0,0,0,1.47,1.26,25.28,25.28,0,0,0,2.14,1.45A11.27,11.27,0,0,0,387,833a9,9,0,0,0,3,.36h2.4a1.62,1.62,0,0,0,1.1-.48l.08-.11a1.5,1.5,0,0,0,.16-.41,2.33,2.33,0,0,0,.07-.6,7.58,7.58,0,0,1,.14-1.7,4.63,4.63,0,0,1,.35-1.14,2.82,2.82,0,0,1,.45-.65,1.79,1.79,0,0,1,.35-.32l.17-.08a1.28,1.28,0,0,1,1.18.34,7,7,0,0,1,1.27,1.27q.59.76,1.43,1.7a10,10,0,0,0,1.46,1.4l.42.26a5,5,0,0,0,1.08.48,2.22,2.22,0,0,0,1.17.11l5.33-.09a2.33,2.33,0,0,0,1.23-.27,1.07,1.07,0,0,0,.52-.6,1.78,1.78,0,0,0,0-.75A2.88,2.88,0,0,0,410.29,831.18Z" transform="translate(-370.5 -809.49)"/></svg>