<svg id="Слой_1" data-name="Слой 1" xmlns="http://www.w3.org/2000/svg" viewBox="0 0 24 24"><title>icon_inst</title><path d="M312.08,867h17.84a3,3,0,0,1,3.08,3.08v17.84a3,3,0,0,1-3.08,3.08H312.08a3,3,0,0,1-3.08-3.08V870.08a3,3,0,0,1,3.08-3.08Zm14.4,2.67a1.08,1.08,0,0,0-1.08,1.08v2.59a1.08,1.08,0,0,0,1.08,1.08h2.71a1.08,1.08,0,0,0,1.08-1.08v-2.59a1.08,1.08,0,0,0-1.08-1.08Zm3.8,7.48h-2.11a7,7,0,0,1,.31,2.06,7.46,7.46,0,0,1-14.92,0,7,7,0,0,1,.31-2.06h-2.2v10.14a1,1,0,0,0,1,1h16.71a1,1,0,0,0,1-1V877.15ZM321,874.28a4.67,4.67,0,1,0,4.82,4.67A4.75,4.75,0,0,0,321,874.28Z" transform="translate(-309 -867)"/></svg>