<svg id="Слой_1" data-name="Слой 1" xmlns="http://www.w3.org/2000/svg" viewBox="0 0 64.98 78.02"><defs><style>.cls-1{fill:#e9274f;}.cls-2{fill:#ff2a56;}</style></defs><title>btn_play_normal</title><path class="cls-1" d="M179,191.51l-51-31.57c-1.51-.88-3.38-.74-4.8-.74-5.66,0-5.63,4.29-5.63,5.38v64.53c0,.92,0,5.38,5.63,5.38,1.41,0,3.29.15,4.8-.74l51-31.57c4.19-2.45,3.46-5.33,3.46-5.33S183.18,194,179,191.51Z" transform="translate(-117.53 -156.48)"/><path class="cls-2" d="M179,188.79l-51-31.57c-1.51-.88-3.38-.74-4.8-.74-5.66,0-5.63,4.29-5.63,5.38v64.53c0,.92,0,5.38,5.63,5.38,1.41,0,3.29.15,4.8-.73l51-31.57c4.19-2.45,3.46-5.34,3.46-5.34S183.18,191.24,179,188.79Z" transform="translate(-117.53 -156.48)"/></svg>