<svg id="Слой_1" data-name="Слой 1" xmlns="http://www.w3.org/2000/svg" viewBox="0 0 693.6 1246.51"><defs><style>.cls-1,.cls-2,.cls-3,.cls-4,.cls-5{fill:none;stroke:#fff;stroke-miterlimit:10;}.cls-2{stroke-dasharray:8.07 8.07;}.cls-3{stroke-dasharray:7.98 7.98;}.cls-4{stroke-dasharray:7.99 7.99;}.cls-5{stroke-dasharray:7.93 7.93;}</style></defs><title>bl11_way</title><path class="cls-1" d="M904.5,122.76s-.9,1-2.67,3" transform="translate(-213.44 -122.43)"/><path class="cls-2" d="M896.33,131.64c-39.62,41.8-220.21,218.43-471.85,252.11" transform="translate(-213.44 -122.43)"/><path class="cls-1" d="M420.47,384.27l-4,.49c.25,0,1.59-.33,3.91-.8" transform="translate(-213.44 -122.43)"/><path class="cls-3" d="M428.25,382.43c75.26-14.12,485.24-75.35,478.21,303.39-.24,1.05-427.24-106.83-684.82,105.79" transform="translate(-213.44 -122.43)"/><path class="cls-1" d="M218.55,794.18l-3.05,2.59s1.33-.38,3.86-1" transform="translate(-213.44 -122.43)"/><path class="cls-4" d="M227.1,793.77c82-20,571.51-120,572.43,341" transform="translate(-213.44 -122.43)"/><path class="cls-1" d="M799.53,1138.76q0,2,0,4s-1.37-.15-4-.36" transform="translate(-213.44 -122.43)"/><path class="cls-5" d="M787.62,1141.84c-64.15-4-369.84-10.61-468.07,219.55" transform="translate(-213.44 -122.43)"/><path class="cls-1" d="M318,1365.06q-.76,1.84-1.5,3.71" transform="translate(-213.44 -122.43)"/></svg>